<svg xmlns="http://www.w3.org/2000/svg" xmlns:xlink="http://www.w3.org/1999/xlink" width="30" height="30" viewBox="0 0 30 30">
    <defs>
        <path id="a" d="M.157.028h24.176v4.71H.157z"/>
        <path id="c" d="M0 30h30V0H0z"/>
    </defs>
    <g fill="none" fill-rule="evenodd">
        <path fill="#016FD0" d="M0 0v30h30V0z"/>
        <g>
            <g transform="translate(5.667 16.167)">
                <mask id="b" fill="#fff">
                    <use xlink:href="#a"/>
                </mask>
                <path fill="#FFF" d="M.157 4.738V.028h4.987l.535.698.553-.698h18.101v4.385s-.473.32-1.02.325H13.289l-.603-.742v.742H10.71V3.471s-.27.177-.854.177h-.672v1.09H6.19l-.535-.712-.542.712H.157z" mask="url(#b)"/>
            </g>
            <path fill="#FFF" d="M0 12.645l1.125-2.622H3.07l.638 1.469v-1.469h2.417l.38 1.062.369-1.062h10.852v.534s.57-.534 1.508-.534l3.522.013.627 1.449v-1.462h2.023l.557.833v-.833h2.042v4.71h-2.042l-.534-.835v.835h-2.972l-.3-.742h-.798l-.294.742h-2.016c-.807 0-1.323-.523-1.323-.523v.523h-3.04l-.602-.742v.742H2.78l-.298-.742h-.797l-.296.742H0v-2.088z"/>
            <path fill="#016FD0" d="M2.084 11.425l.496 1.234h-.994l.498-1.234zm-.561-.821L.006 14.13h.987l.28-.706H2.9l.279.706h1.009l-1.515-3.526h-1.15zM4.292 14.13v-3.527l1.404.006.816 2.273.797-2.279H8.7v3.527h-.882V11.53l-.935 2.599h-.773l-.937-2.599v2.599zM9.304 14.13v-3.527h2.877v.789h-1.986v.603h1.94v.743h-1.94v.626h1.986v.766zM13.573 11.393h1.008c.242 0 .418.189.418.371 0 .234-.228.371-.405.371h-1.02v-.742zm-.882-.79v3.528h.882v-1.253h.371l1.057 1.253h1.078l-1.16-1.3c.476-.04.967-.449.967-1.083 0-.742-.582-1.144-1.232-1.144H12.69z"/>
            <mask id="d" fill="#fff">
                <use xlink:href="#c"/>
            </mask>
            <path fill="#016FD0" d="M16.246 14.13h.9v-3.527h-.9zM19.28 14.13h-.194c-.94 0-1.51-.74-1.51-1.749 0-1.033.564-1.778 1.751-1.778h.975v.836h-1.01c-.482 0-.823.376-.823.95 0 .684.39.97.95.97h.233l-.371.77zM21.76 11.425l.496 1.234h-.993l.497-1.234zm-.56-.821l-1.518 3.526h.988l.28-.706h1.627l.278.706h1.01l-1.516-3.526H21.2zM23.968 14.13v-3.527h1.12l1.432 2.216v-2.216h.881v3.527h-1.084l-1.468-2.274v2.274zM6.427 20.302v-3.527h2.877v.789H7.318v.603h1.94v.742h-1.94v.627h1.986v.766zM20.524 20.302v-3.527h2.877v.789h-1.986v.603h1.93v.742h-1.93v.627h1.986v.766zM9.416 20.302l1.4-1.742-1.434-1.785h1.111l.854 1.103.857-1.103h1.067l-1.415 1.763 1.404 1.764h-1.111l-.83-1.087-.809 1.087zM14.27 17.573h.977c.253 0 .435.156.435.406 0 .236-.18.406-.438.406h-.975v-.812zm-.906-.797v3.526h.905v-1.114h.928c.786 0 1.38-.416 1.38-1.226 0-.671-.466-1.186-1.265-1.186h-1.948zM17.842 17.564h1.008c.242 0 .418.189.418.371 0 .234-.228.371-.405.371h-1.02v-.742zm-.881-.789v3.527h.881v-1.253h.372l1.056 1.253h1.078l-1.16-1.3c.476-.04.967-.449.967-1.083 0-.742-.582-1.144-1.233-1.144h-1.961zM23.81 20.302v-.766h1.764c.261 0 .374-.141.374-.296 0-.148-.112-.298-.374-.298h-.797c-.693 0-1.08-.422-1.08-1.056 0-.566.354-1.111 1.384-1.111h1.717l-.371.794h-1.485c-.284 0-.371.148-.371.29 0 .147.108.308.325.308h.835c.773 0 1.108.438 1.108 1.012 0 .617-.374 1.123-1.15 1.123h-1.88zM27.046 20.302v-.766h1.69c.26 0 .374-.141.374-.296 0-.148-.113-.298-.374-.298h-.723c-.693 0-1.08-.422-1.08-1.056 0-.566.354-1.111 1.384-1.111H30l-.371.794h-1.45c-.285 0-.372.148-.372.29 0 .147.108.308.325.308h.76c.773 0 1.108.438 1.108 1.012 0 .617-.374 1.123-1.15 1.123h-1.804z" mask="url(#d)"/>
        </g>
    </g>
</svg>
