<svg xmlns="http://www.w3.org/2000/svg" width="40" height="40" viewBox="0 0 40 40" fill="none">
  <rect width="40" height="40" rx="20" fill="#EBF3FF" />
  <path d="M28 14H12C10.9 14 10.01 14.9 10.01 16L10 28C10 29.1 10.9 30 12 30H28C29.1 30 30 29.1 30 28V16C30 14.9 29.1 14 28 14ZM28 18L20 23L12 18V16L20 21L28 16V18Z" fill="#0D47A1"/>
  <circle cx="31" cy="15" r="5" fill="#2196F3"/>
  <path d="M31 18C31.55 18 32 17.55 32 17V13C32 12.45 31.55 12 31 12C30.45 12 30 12.45 30 13V17C30 17.55 30.45 18 31 18Z" fill="white"/>
  <path d="M31 20C31.5523 20 32 19.5523 32 19C32 18.4477 31.5523 18 31 18C30.4477 18 30 18.4477 30 19C30 19.5523 30.4477 20 31 20Z" fill="white"/>
</svg> 