<svg xmlns="http://www.w3.org/2000/svg" xmlns:xlink="http://www.w3.org/1999/xlink" width="34" height="26" viewBox="0 0 34 26">
    <defs>
        <path id="a" d="M4.022.639C1.925.639.01 2.529.01 4.65c0 1.168 0 5.789-.002 10.382.384.24 2.233.834 2.976.886 1.628.115 2.637-.423 2.793-1.78L5.77 9.1h3.6v4.924c-.188 2.82-2.662 3.395-6.428 3.206-.975-.05-2.3-.3-2.933-.467l-.002 8.714h6.267c1.71 0 3.936-1.598 3.936-4.029V.64H4.022z"/>
        <linearGradient id="b" x1="-.003%" x2="100.002%" y1="49.999%" y2="49.999%">
            <stop offset="0%" stop-color="#313477"/>
            <stop offset="100%" stop-color="#0077BC"/>
        </linearGradient>
        <path id="d" d="M0 1.736l.008.002V.008L0 .002v1.734z"/>
        <linearGradient id="e" x1="0%" x2="1.21%" y1="50.019%" y2="50.019%">
            <stop offset="0%" stop-color="#313477"/>
            <stop offset="100%" stop-color="#0077BC"/>
        </linearGradient>
        <path id="g" d="M4.415.639C2.32.639.403 2.529.403 4.65v5.492C1.66 9.16 3.686 8.677 6.267 8.877c1.468.113 2.554.317 3.146.493v1.743c-.652-.326-1.94-.811-3.014-.888-2.434-.175-3.711.965-3.711 2.808 0 1.659.986 3.08 3.699 2.89.895-.063 2.385-.584 3.018-.886l.008 1.691c-.545.173-2.242.542-3.84.555-2.404.019-4.101-.491-5.173-1.32l-.003 9.513h6.268c1.71 0 3.937-1.598 3.937-4.029V.64H4.415z"/>
        <linearGradient id="h" x1=".004%" x2="99.996%" y1="49.999%" y2="49.999%">
            <stop offset="0%" stop-color="#753136"/>
            <stop offset="100%" stop-color="#ED1746"/>
        </linearGradient>
        <path id="j" d="M.137.497L.132 2.691l2.454.008c.477 0 1.077-.408 1.077-1.12 0-.63-.518-1.087-1.073-1.081-.343.003-.889.001-1.383 0L.417.495c-.13 0-.228 0-.28.002"/>
        <linearGradient id="k" x1="0%" x2="99.996%" y1="50.008%" y2="50.008%">
            <stop offset="0%" stop-color="#008049"/>
            <stop offset="100%" stop-color="#62BA44"/>
        </linearGradient>
        <path id="m" d="M.128.525l-.01 1.998 2.32.017c.385-.008.927-.361.927-.98 0-.63-.473-1.054-.977-1.042-.329.008-.78.005-1.198.001L.577.516c-.207 0-.37.003-.449.01"/>
        <linearGradient id="n" x1=".022%" x2="100.012%" y1="49.994%" y2="49.994%">
            <stop offset="0%" stop-color="#008049"/>
            <stop offset="100%" stop-color="#62BA44"/>
        </linearGradient>
        <path id="p" d="M4.102.639C2.005.639.089 2.529.089 4.65v4.415h5.958c1.185 0 2.58.508 2.58 1.949 0 .773-.41 1.649-1.894 1.932v.034c.866 0 2.368.506 2.368 2.035 0 1.58-1.623 2.017-2.491 2.017l-6.522.007-.002 8.437h6.267c1.71 0 3.935-1.598 3.935-4.029V.64H4.102z"/>
        <linearGradient id="q" x1="-.007%" x2="100.004%" y1="49.999%" y2="49.999%">
            <stop offset="0%" stop-color="#008049"/>
            <stop offset="100%" stop-color="#62BA44"/>
        </linearGradient>
    </defs>
    <g fill="none" fill-rule="evenodd">
        <g transform="translate(0 .015)">
            <mask id="c" fill="#fff">
                <use xlink:href="#a"/>
            </mask>
            <path fill="url(#b)" d="M4.022.639C1.925.639.01 2.529.01 4.65c0 1.168 0 5.789-.002 10.382.384.24 2.233.834 2.976.886 1.628.115 2.637-.423 2.793-1.78L5.77 9.1h3.6v4.924c-.188 2.82-2.662 3.395-6.428 3.206-.975-.05-2.3-.3-2.933-.467l-.002 8.714h6.267c1.71 0 3.936-1.598 3.936-4.029V.64H4.022z" mask="url(#c)"/>
        </g>
        <g transform="translate(0 15.039)">
            <mask id="f" fill="#fff">
                <use xlink:href="#d"/>
            </mask>
            <path fill="url(#e)" d="M0 1.736l.008.002V.008L0 .002v1.734z" mask="url(#f)"/>
        </g>
        <g transform="translate(11.105 .015)">
            <mask id="i" fill="#fff">
                <use xlink:href="#g"/>
            </mask>
            <path fill="url(#h)" d="M4.415.639C2.32.639.403 2.529.403 4.65v5.492C1.66 9.16 3.686 8.677 6.267 8.877c1.468.113 2.554.317 3.146.493v1.743c-.652-.326-1.94-.811-3.014-.888-2.434-.175-3.711.965-3.711 2.808 0 1.659.986 3.08 3.699 2.89.895-.063 2.385-.584 3.018-.886l.008 1.691c-.545.173-2.242.542-3.84.555-2.404.019-4.101-.491-5.173-1.32l-.003 9.513h6.268c1.71 0 3.937-1.598 3.937-4.029V.64H4.415z" mask="url(#i)"/>
        </g>
        <g transform="translate(24.823 13.08)">
            <mask id="l" fill="#fff">
                <use xlink:href="#j"/>
            </mask>
            <path fill="url(#k)" d="M.137.497L.132 2.691l2.454.008c.477 0 1.077-.408 1.077-1.12 0-.63-.518-1.087-1.073-1.081-.343.003-.889.001-1.383 0L.417.495c-.13 0-.228 0-.28.002" mask="url(#l)"/>
        </g>
        <g transform="translate(24.823 9.813)">
            <mask id="o" fill="#fff">
                <use xlink:href="#m"/>
            </mask>
            <path fill="url(#n)" d="M.128.525l-.01 1.998 2.32.017c.385-.008.927-.361.927-.98 0-.63-.473-1.054-.977-1.042-.329.008-.78.005-1.198.001L.577.516c-.207 0-.37.003-.449.01" mask="url(#o)"/>
        </g>
        <g transform="translate(22.863 .015)">
            <mask id="r" fill="#fff">
                <use xlink:href="#p"/>
            </mask>
            <path fill="url(#q)" d="M4.102.639C2.005.639.089 2.529.089 4.65v4.415h5.958c1.185 0 2.58.508 2.58 1.949 0 .773-.41 1.649-1.894 1.932v.034c.866 0 2.368.506 2.368 2.035 0 1.58-1.623 2.017-2.491 2.017l-6.522.007-.002 8.437h6.267c1.71 0 3.935-1.598 3.935-4.029V.64H4.102z" mask="url(#r)"/>
        </g>
    </g>
</svg>
