<svg xmlns="http://www.w3.org/2000/svg" xmlns:xlink="http://www.w3.org/1999/xlink" width="39" height="30" viewBox="0 0 39 30">
    <defs>
        <path id="a" d="M.075.118h.659v.64H.075z"/>
        <path id="c" d="M0 .07h19.14v23.625H0z"/>
        <path id="e" d="M.049.07h19.14v23.625H.049z"/>
    </defs>
    <g fill="none" fill-rule="evenodd">
        <path fill="#1D1D1B" d="M6.566 26.882a1.16 1.16 0 0 0-.391-.256 1.31 1.31 0 0 0-.496-.092c-.095 0-.193.008-.296.024a1.303 1.303 0 0 0-.3.087 1.134 1.134 0 0 0-.28.172 1.033 1.033 0 0 0-.232.276 1.127 1.127 0 0 0-.429-.41c-.18-.1-.387-.15-.619-.15a1.44 1.44 0 0 0-.242.022 1.12 1.12 0 0 0-.249.074 1.004 1.004 0 0 0-.44.37v-.383h-.659v3.134h.665v-1.737c0-.133.022-.252.064-.355a.704.704 0 0 1 .418-.419.85.85 0 0 1 .304-.054c.223 0 .397.071.52.213.124.142.186.344.186.608v1.744h.665v-1.737c0-.133.02-.252.063-.355a.706.706 0 0 1 .418-.419.85.85 0 0 1 .304-.054c.224 0 .398.071.521.213.124.142.185.344.185.608v1.744h.665v-1.97c0-.183-.03-.35-.09-.503a1.147 1.147 0 0 0-.255-.395M10.047 28.582a.896.896 0 0 1-.877.605.946.946 0 0 1-.398-.08.883.883 0 0 1-.296-.216.959.959 0 0 1-.186-.319 1.149 1.149 0 0 1-.066-.389c0-.137.022-.267.066-.39a.959.959 0 0 1 .186-.318c.08-.09.18-.163.296-.216a.944.944 0 0 1 .398-.08.898.898 0 0 1 .877.605c.046.122.068.255.068.399 0 .144-.022.277-.068.399zm.026-1.587a1.225 1.225 0 0 0-.406-.335 1.24 1.24 0 0 0-.579-.126 1.536 1.536 0 0 0-1.446.986 1.77 1.77 0 0 0-.121.663c0 .24.04.46.12.662.082.202.193.376.335.522a1.53 1.53 0 0 0 1.112.465c.225 0 .418-.041.58-.124a1.21 1.21 0 0 0 .405-.334v.376h.684v-3.134h-.684v.38zM13.9 28.178c-.192-.15-.46-.25-.802-.3l-.323-.048a2.824 2.824 0 0 1-.204-.038.659.659 0 0 1-.163-.057.312.312 0 0 1-.11-.092.225.225 0 0 1-.04-.137c0-.112.051-.202.155-.27.104-.069.25-.103.437-.103a1.6 1.6 0 0 1 .29.026c.094.017.184.04.27.065a1.968 1.968 0 0 1 .408.177l.295-.533a2.007 2.007 0 0 0-.573-.244 2.715 2.715 0 0 0-.697-.087c-.2 0-.38.024-.54.07-.159.047-.295.114-.407.2a.872.872 0 0 0-.259.316.952.952 0 0 0-.09.419c0 .253.09.457.27.613.18.156.445.258.794.306l.327.043c.188.026.325.068.412.125.088.058.131.132.131.221 0 .118-.06.211-.18.28-.12.069-.298.103-.533.103-.129 0-.244-.009-.345-.026a1.727 1.727 0 0 1-.278-.07 1.343 1.343 0 0 1-.226-.102 1.63 1.63 0 0 1-.185-.122l-.317.513c.113.085.232.154.356.207a2.482 2.482 0 0 0 .988.196c.225 0 .426-.025.604-.076.178-.05.327-.12.448-.21a.894.894 0 0 0 .375-.738c0-.269-.096-.478-.288-.627M18.39 27.915c.018-.114.048-.218.092-.313a.841.841 0 0 1 .168-.245.706.706 0 0 1 .246-.159.89.89 0 0 1 .325-.056c.218 0 .396.068.533.203.138.136.225.325.262.57H18.39zm1.913-.925a1.342 1.342 0 0 0-.468-.337 1.481 1.481 0 0 0-.6-.119c-.232 0-.443.04-.634.12-.19.08-.355.191-.492.336-.138.145-.245.32-.32.522a1.89 1.89 0 0 0-.115.671c0 .249.039.474.117.677.079.203.189.377.33.52.143.144.312.256.508.334.196.079.412.118.648.118.237 0 .464-.033.679-.098.214-.066.418-.18.61-.344l-.34-.487a1.53 1.53 0 0 1-.434.244 1.368 1.368 0 0 1-.473.086c-.111 0-.218-.015-.32-.046a.836.836 0 0 1-.491-.389c-.059-.1-.1-.221-.121-.363h2.316a2.108 2.108 0 0 0 .013-.255c0-.245-.036-.468-.11-.67a1.574 1.574 0 0 0-.303-.52zM29.361 28.582a.898.898 0 0 1-.877.605.945.945 0 0 1-.397-.08.884.884 0 0 1-.296-.216.959.959 0 0 1-.187-.319 1.149 1.149 0 0 1-.065-.389c0-.137.022-.267.065-.39a.959.959 0 0 1 .187-.318c.08-.09.18-.163.296-.216a.943.943 0 0 1 .397-.08.9.9 0 0 1 .877.605c.046.122.069.255.069.399 0 .144-.023.277-.069.399zm.026-1.587a1.225 1.225 0 0 0-.405-.335 1.24 1.24 0 0 0-.58-.126 1.536 1.536 0 0 0-1.446.986c-.08.202-.12.423-.12.663 0 .24.04.46.12.662a1.532 1.532 0 0 0 1.446.987c.225 0 .418-.041.58-.124a1.21 1.21 0 0 0 .405-.334v.376h.684v-3.134h-.684v.38zM16.832 29.125a.922.922 0 0 1-.326.062.562.562 0 0 1-.194-.032.405.405 0 0 1-.157-.103.499.499 0 0 1-.107-.182.81.81 0 0 1-.039-.268v-1.365h1.098v-.621H16.01v-.949h-.687v.949h-.625v.621h.625v1.378c0 .416.099.723.296.92.198.198.474.297.83.297.198 0 .376-.03.535-.092a2.25 2.25 0 0 0 .292-.137l-.234-.573a1.785 1.785 0 0 1-.209.095M23.006 26.534c-.192 0-.366.035-.52.105-.155.07-.285.238-.39.388v-.411h-.62v3.134h.627v-1.724c0-.133.018-.252.055-.357a.772.772 0 0 1 .154-.265.635.635 0 0 1 .236-.163.793.793 0 0 1 .3-.056 1.337 1.337 0 0 1 .406.066l.203-.654a1.253 1.253 0 0 0-.168-.042 1.703 1.703 0 0 0-.283-.021M32.511 26.534c-.191 0-.365.035-.52.105-.155.07-.284.238-.39.388v-.411h-.62v3.134h.627v-1.724c0-.133.019-.252.056-.357a.772.772 0 0 1 .154-.265.637.637 0 0 1 .235-.163.793.793 0 0 1 .301-.056 1.337 1.337 0 0 1 .406.066l.202-.654a1.264 1.264 0 0 0-.167-.042 1.704 1.704 0 0 0-.284-.021M35.68 28.582a.897.897 0 0 1-.877.605.946.946 0 0 1-.398-.08.884.884 0 0 1-.296-.216.956.956 0 0 1-.187-.319 1.145 1.145 0 0 1-.065-.389c0-.137.021-.267.065-.39a.956.956 0 0 1 .187-.318c.08-.09.179-.163.296-.216a.943.943 0 0 1 .397-.08.9.9 0 0 1 .877.605c.046.122.069.255.069.399 0 .144-.023.277-.069.399zm.025-3.24v1.653a1.226 1.226 0 0 0-.405-.335 1.24 1.24 0 0 0-.58-.126 1.537 1.537 0 0 0-1.112.465c-.142.146-.253.32-.334.521-.08.202-.12.423-.12.663 0 .24.04.46.12.662a1.53 1.53 0 0 0 1.446.987c.225 0 .418-.041.58-.124a1.21 1.21 0 0 0 .405-.334v.376h.684v-4.408h-.684zM24.642 27.458a.92.92 0 0 1 .311-.206c.12-.049.25-.074.39-.074.153 0 .296.025.428.074.127.047.238.114.332.198l.329-.548a1.683 1.683 0 0 0-.417-.242 1.766 1.766 0 0 0-.673-.126c-.242 0-.466.042-.672.126a1.602 1.602 0 0 0-.885.869c-.085.2-.128.419-.128.654 0 .236.043.454.128.654a1.603 1.603 0 0 0 .885.869c.206.084.43.126.672.126.242 0 .467-.042.673-.126.154-.063.293-.144.417-.242l-.33-.548c-.093.084-.204.15-.331.198a1.222 1.222 0 0 1-.429.073c-.14 0-.269-.024-.389-.073a.919.919 0 0 1-.517-.524 1.072 1.072 0 0 1-.075-.407c0-.148.025-.284.075-.407a.96.96 0 0 1 .206-.318"/>
        <g transform="translate(37.424 29.173)">
            <mask id="b" fill="#fff">
                <use xlink:href="#a"/>
            </mask>
            <path fill="#1D1D1B" d="M.363.365v.052h.06A.06.06 0 0 0 .45.41c.007-.004.01-.01.01-.02C.46.382.458.375.45.371A.054.054 0 0 0 .423.365h-.06zm.061-.07c.039 0 .068.01.089.027.02.017.03.04.03.07A.078.078 0 0 1 .52.447a.11.11 0 0 1-.063.03l.088.101H.451L.372.48h-.01v.099H.284V.296h.141zM.405.67A.223.223 0 0 0 .568.6.232.232 0 0 0 .405.207a.229.229 0 0 0-.214.14.23.23 0 0 0-.017.09.23.23 0 0 0 .231.232zm0-.551a.327.327 0 0 1 .329.32.32.32 0 0 1-.2.295A.334.334 0 0 1 .17.663.321.321 0 0 1 .074.436.306.306 0 0 1 .17.212.333.333 0 0 1 .405.118z" mask="url(#b)"/>
        </g>
        <g transform="translate(0 .082)">
            <mask id="d" fill="#fff">
                <use xlink:href="#c"/>
            </mask>
            <path fill="#E30E17" d="M14.654 11.882c0-3.755 1.755-7.099 4.486-9.262A11.759 11.759 0 0 0 11.813.07C5.289.07 0 5.357 0 11.881c0 6.524 5.289 11.813 11.813 11.813 2.769 0 5.313-.956 7.327-2.551a11.788 11.788 0 0 1-4.486-9.262" mask="url(#d)"/>
        </g>
        <path fill="#EA600A" d="M14.654 11.964c0 3.755 1.755 7.099 4.486 9.262a11.788 11.788 0 0 0 4.485-9.262c0-3.755-1.754-7.098-4.485-9.262a11.789 11.789 0 0 0-4.486 9.262"/>
        <path fill="#F59F00" d="M38.22 18.413v-.347l-.1.3h-.11l-.099-.3v.347h-.103v-.5h.148l.11.32.108-.32h.149v.5h-.104zm-.741 0v-.392h-.14v-.108h.383v.108h-.14v.392h-.103z"/>
        <g transform="translate(19.09 .082)">
            <mask id="f" fill="#fff">
                <use xlink:href="#e"/>
            </mask>
            <path fill="#F59F00" d="M7.376.07A11.76 11.76 0 0 0 .05 2.62a11.788 11.788 0 0 1 4.486 9.262c0 3.755-1.755 7.098-4.486 9.262a11.759 11.759 0 0 0 7.327 2.55c6.524 0 11.813-5.288 11.813-11.812C19.189 5.358 13.9.069 7.376.069" mask="url(#f)"/>
        </g>
    </g>
</svg>
