<svg xmlns="http://www.w3.org/2000/svg" width="168" height="42" viewBox="0 0 168 42">
    <g fill="none" fill-rule="evenodd">
        <path fill="#009ADE" d="M32.728 10.66c.524-3.253 0-5.48-1.79-7.492C28.972.942 25.348 0 20.762 0H7.442c-.916 0-1.746.685-1.877 1.584L.02 36.092c-.131.685.437 1.284 1.135 1.284h8.21l-.567 3.51C8.709 41.487 9.19 42 9.8 42h6.944c.83 0 1.528-.6 1.66-1.37l.087-.343 1.31-8.134.087-.428c.131-.814.83-1.37 1.66-1.37h1.048c6.725 0 11.965-2.655 13.494-10.404.655-3.254.305-5.951-1.398-7.835a7.275 7.275 0 0 0-1.965-1.455"/>
        <path fill="#002169" d="M32.475 10.648c.52-3.25 0-5.474-1.777-7.483C28.748.94 25.152 0 20.602 0H7.385c-.91 0-1.733.684-1.863 1.582L.019 36.05c-.13.685.433 1.283 1.126 1.283h8.147l2.037-12.829-.044.385c.13-.898.91-1.582 1.864-1.582h3.9c7.626 0 13.606-3.037 15.34-11.889 0-.256.043-.513.086-.77"/>
        <path fill="#002F87" d="M13.582 10.691c.087-.556.433-.983.91-1.24.217-.086.477-.171.693-.171h10.357c1.213 0 2.383.085 3.423.256.303.043.607.086.867.172.303.042.563.128.823.213l.39.129c.52.17.997.385 1.43.598.52-3.25 0-5.474-1.777-7.483C28.748.94 25.152 0 20.602 0H7.385c-.91 0-1.733.684-1.863 1.582L.019 36.05c-.13.685.433 1.283 1.126 1.283h8.147l2.037-12.829 2.253-13.813z"/>
        <path fill="#009ADE" fill-rule="nonzero" d="M126.958 6.533h-9.689c-.652 0-1.216.465-1.347 1.1l-3.91 24.146c-.087.465.304.888.782.888h4.953c.478 0 .869-.339.912-.761l1.13-6.851c.087-.634.652-1.1 1.347-1.1h3.041c6.387 0 10.036-3.002 10.992-8.964.434-2.58 0-4.652-1.216-6.09-1.347-1.564-3.78-2.368-6.995-2.368zm1.086 8.796c-.522 3.383-3.172 3.383-5.735 3.383h-1.477l1.042-6.3c.044-.381.391-.677.782-.677h.652c1.738 0 3.389 0 4.258.972.521.592.695 1.438.478 2.622z"/>
        <path fill="#002F87" fill-rule="nonzero" d="M57.891 6.533h-9.689c-.651 0-1.216.465-1.346 1.1l-3.91 24.146c-.087.465.304.888.782.888h4.605c.652 0 1.216-.465 1.347-1.1l1.042-6.512c.087-.634.652-1.1 1.347-1.1h3.041c6.387 0 10.037-3.002 10.992-8.964.435-2.58 0-4.652-1.216-6.09-1.347-1.564-3.78-2.368-6.995-2.368zm1.086 8.796c-.521 3.383-3.171 3.383-5.735 3.383h-1.477l1.043-6.3c.043-.381.39-.677.782-.677h.652c1.737 0 3.388 0 4.257.972.522.592.695 1.438.478 2.622zM86.95 15.365h-4.588a.787.787 0 0 0-.772.692l-.214 1.296-.3-.475c-.987-1.426-3.174-1.945-5.403-1.945-5.06 0-9.347 3.846-10.205 9.247-.429 2.68.172 5.272 1.715 7.087 1.415 1.642 3.387 2.333 5.746 2.333 4.073 0 6.303-2.636 6.303-2.636l-.215 1.296c-.085.476.3.908.772.908h4.116c.643 0 1.2-.475 1.33-1.124l2.486-15.771c.086-.475-.3-.908-.771-.908zm-6.39 8.945c-.428 2.636-2.529 4.407-5.144 4.407-1.33 0-2.402-.432-3.088-1.253-.686-.82-.943-1.944-.728-3.24.428-2.593 2.53-4.451 5.102-4.451 1.286 0 2.358.432 3.044 1.253.772.864 1.03 2.03.815 3.284z"/>
        <path fill="#009ADE" fill-rule="nonzero" d="M155.083 15.365h-4.588a.787.787 0 0 0-.772.692l-.214 1.296-.3-.475c-.986-1.426-3.173-1.945-5.403-1.945-5.06 0-9.347 3.846-10.205 9.247-.428 2.68.172 5.272 1.716 7.087 1.414 1.642 3.387 2.333 5.745 2.333 4.073 0 6.303-2.636 6.303-2.636l-.214 1.296c-.086.476.3.908.771.908h4.117c.643 0 1.2-.475 1.329-1.124l2.487-15.771c.085-.475-.3-.908-.772-.908zm-6.389 8.945c-.429 2.636-2.53 4.407-5.145 4.407-1.33 0-2.401-.432-3.087-1.253-.686-.82-.944-1.944-.73-3.24.43-2.593 2.53-4.451 5.103-4.451 1.287 0 2.358.432 3.045 1.253.771.864 1.029 2.03.814 3.284z"/>
        <path fill="#002F87" d="M111.208 14.933h-4.653c-.434 0-.87.21-1.13.588l-6.392 9.107-2.739-8.771c-.174-.546-.696-.924-1.304-.924h-4.566c-.565 0-.956.546-.782 1.05l5.13 14.52-4.826 6.547c-.391.503 0 1.217.652 1.217h4.653c.434 0 .87-.21 1.087-.546l15.478-21.57c.435-.546.044-1.218-.608-1.218z"/>
        <path fill="#009ADE" d="M160.847 7.21l-4.035 24.569c-.088.465.31.888.798.888h4.08c.665 0 1.24-.465 1.374-1.1l3.99-24.146c.089-.465-.31-.888-.798-.888h-4.567c-.399.043-.753.296-.842.677z"/>
    </g>
</svg>
