<svg xmlns="http://www.w3.org/2000/svg" width="101" height="45" viewBox="0 0 101 45">
    <g fill="none" fill-rule="evenodd">
        <path fill="#FEFEFE" d="M0 44.497h100.86V0H0z"/>
        <path fill="#00579F" d="M36.847 35.941L41.5 8.626h7.446L44.289 35.94zM71.293 9.298c-1.475-.554-3.787-1.147-6.674-1.147-7.356 0-12.539 3.705-12.583 9.014-.041 3.925 3.7 6.115 6.524 7.422 2.898 1.338 3.872 2.192 3.859 3.388-.019 1.83-2.315 2.667-4.455 2.667-2.98 0-4.563-.414-7.008-1.433l-.96-.435-1.044 6.115c1.739.762 4.954 1.423 8.293 1.457 7.827 0 12.907-3.662 12.965-9.332.028-3.107-1.955-5.472-6.25-7.421-2.603-1.264-4.197-2.108-4.18-3.387 0-1.135 1.349-2.35 4.263-2.35 2.436-.037 4.199.494 5.573 1.047l.667.315 1.01-5.92M81.204 26.258c.616-1.574 2.966-7.636 2.966-7.636-.044.073.611-1.581.987-2.607l.504 2.355 1.723 7.888h-6.18zm9.18-17.606h-5.752c-1.783 0-3.116.486-3.9 2.265L69.676 35.95h7.818s1.28-3.366 1.568-4.105c.855 0 8.45.012 9.535.012.223.956.906 4.093.906 4.093h6.909L90.385 8.652zM30.602 8.646l-7.29 18.627-.776-3.786c-1.357-4.364-5.585-9.091-10.312-11.458l6.665 23.889 7.878-.01L38.49 8.647h-7.887"/>
        <path fill="#F9A51A" d="M16.55 8.629H4.546l-.095.568c9.34 2.26 15.52 7.725 18.086 14.29l-2.61-12.552c-.452-1.73-1.759-2.246-3.375-2.306"/>
    </g>
</svg>
